<?xml version="1.0" encoding="UTF-8" standalone="no"?>
<svg
  xmlns="http://www.w3.org/2000/svg"
  xmlns:svg="http://www.w3.org/2000/svg"
  height="16px"
  viewBox="0 0 16 16"
  width="16px"
  version="1.1">
  <path
    style="display:inline;fill:#000000;fill-opacity:0.737255;stroke-width:1.41421;paint-order:markers stroke fill;enable-background:new"
    d="m 6,2.999999 v 1 h 5.000001 v -1 z m -5,1 v 2 h 3 v -2 z m 0,3 v 2 h 3 v -2 z m 0,3 v 2 h 3 v -2 z m 0,3 v 1 h 3 v -1 z" />
  <path
    style="display:inline;fill:#000000;fill-opacity:0.999296;stroke:none;stroke-width:1.85164;stroke-miterlimit:4;stroke-dasharray:none;stroke-opacity:0.850738;paint-order:markers stroke fill;enable-background:new"
    d="m 1,0.999999 c -0.554,0 -1,0.446 -1,1 v 12 c 0,0.554 0.446,1 1,1 h 12.000001 l 3,-3 v -10 c 0,-0.554 -0.446001,-1 -1,-1 z m 0,1 h 3 v 1 H 1 Z m 4,0 h 10.000001 v 10 h -1 c -0.554001,0 -1,0.446 -1,1 v 1 H 5 Z m -4,2 h 3 v 2 H 1 Z m 0,3 h 3 v 2 H 1 Z m 0,3 h 3 v 2 H 1 Z m 0,3 h 3 v 1 H 1 Z" />
  <path
    style="display:inline;fill:#000000;fill-opacity:0.432398;stroke-width:2.3094;paint-order:markers stroke fill;enable-background:new"
    d="m 6,4.999999 v 3 h 3 v -1 h 5.000001 v -2 z m 0,4 v 2 h 5.000001 v -1 h 3 v -1 z m 2,3 v 1 h 4.000001 v -1 z" />
  <rect
    style="display:inline;fill:#000000;fill-opacity:0.593782;stroke-width:0.577349;paint-order:markers stroke fill;enable-background:new"
    width="1"
    height="1"
    x="6"
    y="11.999999"/>
</svg>
