<?xml version="1.0" encoding="UTF-8" standalone="no"?>
<svg
   height="16px"
   viewBox="0 0 16 16"
   width="16px"
   version="1.1"
   id="svg12"
   xmlns="http://www.w3.org/2000/svg"
   xmlns:svg="http://www.w3.org/2000/svg">
  <defs
     id="defs16" />
  <path
     id="rect123777"
     style="display:inline;fill:#000000;fill-opacity:0.999296;stroke:none;stroke-width:1.85164;stroke-miterlimit:4;stroke-dasharray:none;stroke-opacity:0.850738;paint-order:markers stroke fill;enable-background:new"
     d="M 3,0 C 2.446,0 2,0.446 2,1 v 13.999999 c 0,0.554 0.446,1 1,1 h 8.000001 l 1,-1 H 3 V 1 h 10.000001 v 12.999999 l 1,-1 V 1 c 0,-0.554 -0.446,-1 -1,-1 z M 4.50586,3 C 4.22566,3 4,3.2256635 4,3.5058594 V 4.4941406 C 4,4.7743365 4.22566,5 4.50586,5 h 4.9882808 c 0.2802,0 0.5058602,-0.2256635 0.5058602,-0.5058594 V 3.5058594 C 10.000001,3.2256635 9.7743408,3 9.4941408,3 Z" />
  <path
     id="rect124392"
     style="display:inline;fill:#000000;fill-opacity:0.737335;stroke:none;stroke-width:2;stroke-miterlimit:4;stroke-dasharray:none;stroke-opacity:0.850738;paint-order:markers stroke fill;enable-background:new"
     d="M 4.5,6 C 4.223,6 4,6.223 4,6.5 4,6.777 4.223,7 4.5,7 h 7.000001 c 0.277,0 0.5,-0.223 0.5,-0.5 0,-0.277 -0.223,-0.5 -0.5,-0.5 z m 0,2 C 4.223,8 4,8.223 4,8.5 4,8.777 4.223,9 4.5,9 h 4 C 8.777,9 9,8.777 9,8.5 9,8.223 8.777,8 8.5,8 Z m 2,2 C 6.223,10 6,10.223 6,10.499999 c 0,0.277 0.223,0.5 0.5,0.5 h 4.000001 c 0.277,0 0.5,-0.223 0.5,-0.5 0,-0.276999 -0.223,-0.499999 -0.5,-0.499999 z m 0,1.999999 c -0.277,0 -0.5,0.223 -0.5,0.5 0,0.277 0.223,0.5 0.5,0.5 h 3.0000008 c 0.277,0 0.5000002,-0.223 0.5000002,-0.5 0,-0.277 -0.2230002,-0.5 -0.5000002,-0.5 z" />
  <path
     id="rect124398"
     style="display:inline;fill:#000000;fill-opacity:0.56419;stroke:none;stroke-width:2;stroke-miterlimit:4;stroke-dasharray:none;stroke-opacity:0.850738;paint-order:markers stroke fill;enable-background:new"
     d="M 4.47461,10 C 4.2097,10.01334 4,10.231656 4,10.499999 c 0,0.277 0.223,0.5 0.5,0.5 0.277,0 0.5,-0.223 0.5,-0.5 C 5,10.223 4.777,10 4.5,10 4.491,10 4.4831,9.9995696 4.4746,10 Z m 0,1.999999 C 4.2097,12.013339 4,12.231655 4,12.499999 c 0,0.277 0.223,0.5 0.5,0.5 0.277,0 0.5,-0.223 0.5,-0.5 0,-0.277 -0.223,-0.5 -0.5,-0.5 -0.009,0 -0.0169,-4.3e-4 -0.0254,0 z" />
  <path
     id="rect125170"
     style="display:inline;fill:#000000;fill-opacity:0.999296;stroke:none;stroke-width:1.85164;stroke-miterlimit:4;stroke-dasharray:none;stroke-opacity:0.850738;paint-order:markers stroke fill;enable-background:new"
     d="m 14.000001,12.999999 h -2 c -0.554,0 -1,0.446 -1,1 v 2 z" />
</svg>
