<?xml version="1.0" encoding="UTF-8" standalone="no"?>
<!-- Created with Inkscape (http://www.inkscape.org/) -->
<svg height="16" viewBox="0 0 4.2333332 4.2333332" width="16" xmlns="http://www.w3.org/2000/svg" inkscape:version="1.1.1 (3bf5ae0d25, 2021-09-20)" sodipodi:docname="symbolic.svg" xmlns:inkscape="http://www.inkscape.org/namespaces/inkscape" xmlns:sodipodi="http://sodipodi.sourceforge.net/DTD/sodipodi-0.dtd" xmlns:svg="http://www.w3.org/2000/svg">
    <sodipodi:namedview pagecolor="#505050" bordercolor="#eeeeee" borderopacity="1" inkscape:pageshadow="0" inkscape:pageopacity="0" inkscape:pagecheckerboard="0" inkscape:document-units="mm" showgrid="false" units="px" showguides="false" inkscape:snap-page="true" inkscape:snap-bbox="true" inkscape:bbox-paths="true" inkscape:bbox-nodes="true" inkscape:snap-bbox-edge-midpoints="true" inkscape:snap-bbox-midpoints="true" inkscape:zoom="27.515353" inkscape:cx="3.3799312" inkscape:cy="5.9603088" inkscape:window-width="1503" inkscape:window-height="933" inkscape:window-x="0" inkscape:window-y="0" inkscape:window-maximized="1" inkscape:current-layer="layer1"/>
    <path d="m 0.26459 0.52916664 c -0.14658 0 -0.26459 0.118004 -0.26459 0.26458303 v 2.64583303 c 0 0.146579 0.11801 0.264584 0.26459 0.264584 h 0.26458 v -2.116667 h 1.5875 v 2.116667 h 1.8520799 c 0.14658 0 0.26459 -0.118005 0.26459 -0.264584 v -2.64583303 c 0 -0.14657903 -0.11801 -0.26458303 -0.26459 -0.26458303 h -1.85208 v 0.52916616 h -1.5874999 v -0.52916616 z m 3.3052199 1.41541706 c 0.0374 -0.0017 0.075 0.01088 0.0966 0.03256 l 0.18139 0.181385 c 0.0375 0.0375 0.0427 0.128382 0 0.171049 l -0.23358 0.235127 l -0.35088 -0.358634 l 0.22686 -0.228927 c 0.0215 -0.02138 0.0505 -0.03124 0.0796 -0.03256 z m -0.3942899 0.349333 l 0.35088 0.359151 l -0.69815 0.698149 h -0.3576 v -0.352434 z" stroke-width="0.264583" inkscape:export-filename="/home/zagura/Documents/rect77506.svg" inkscape:export-xdpi="96" inkscape:export-ydpi="96"/>
</svg>
