<?xml version="1.0" encoding="UTF-8" standalone="no"?>
<svg
   height="16px"
   viewBox="0 0 16 16"
   width="16px"
   version="1.1"
   id="svg135"
   xmlns="http://www.w3.org/2000/svg"
   xmlns:svg="http://www.w3.org/2000/svg">
  <defs
     id="defs139" />
  <path
     d="M 5.984375,0.00390625 4.984375,1 l -3,0.00391 c 0,0 -1,0 -1,1 L 1,3 h 15 l -0.01563,-0.996094 c 0,-1 -1,-1 -1,-1 l -3,-0.00391 -1,-0.99609375 z M 2,4 v 9 c 0,3 3,3 3,3 h 7 c 3,0 3,-3 3,-3 V 4 h -2 v 9 c 0,1 -1,1 -1,1 H 5 C 5,14 4,14 4,13 V 4 Z"
     fill="#2e3436"
     id="path133" />
  <path
     d="m 5.9986768,5.5073461 h 0.6236518 0.019489 c 0.1583489,0.00731 0.3191344,0.080393 0.4287606,0.1948912 L 8.4932838,7.1249426 9.9354785,5.7022373 C 10.101136,5.5585049 10.213198,5.5122181 10.364239,5.5073461 h 0.623652 v 0.6236518 c 0,0.177838 -0.02193,0.3434955 -0.155913,0.4677388 L 9.4092723,8.021442 10.812489,9.4246591 c 0.116934,0.116934 0.175402,0.282592 0.175402,0.448249 V 10.49656 h -0.623652 c -0.165657,0 -0.331315,-0.05847 -0.4482497,-0.175402 L 8.4932838,8.8984521 7.0705783,10.321158 C 6.9536436,10.438093 6.7879861,10.49656 6.6223286,10.49656 H 5.9986768 V 9.8729081 c 0,-0.165657 0.058467,-0.331315 0.1754021,-0.448249 L 7.5967844,8.021442 6.1740789,6.5987367 C 6.0425271,6.47693 5.9840597,6.3063999 5.9986768,6.1309979 Z m 0,0"
     fill="#222222"
     id="path2"
     style="stroke-width:0.623652;fill:#2e3436;fill-opacity:1" />
</svg>
