<?xml version="1.0" encoding="UTF-8" standalone="no"?>
<svg
   width="16"
   height="16"
   version="1.1"
   id="svg4"
   sodipodi:docname="empty-trash-symbolic.svg"
   inkscape:version="1.1.1 (3bf5ae0d25, 2021-09-20)"
   xmlns:inkscape="http://www.inkscape.org/namespaces/inkscape"
   xmlns:sodipodi="http://sodipodi.sourceforge.net/DTD/sodipodi-0.dtd"
   xmlns="http://www.w3.org/2000/svg"
   xmlns:svg="http://www.w3.org/2000/svg">
  <defs
     id="defs8" />
  <sodipodi:namedview
     id="namedview6"
     pagecolor="#505050"
     bordercolor="#eeeeee"
     borderopacity="1"
     inkscape:pageshadow="0"
     inkscape:pageopacity="0"
     inkscape:pagecheckerboard="0"
     showgrid="false"
     inkscape:zoom="12.491669"
     inkscape:cx="19.613072"
     inkscape:cy="23.375579"
     inkscape:window-width="1503"
     inkscape:window-height="933"
     inkscape:window-x="0"
     inkscape:window-y="0"
     inkscape:window-maximized="1"
     inkscape:current-layer="svg4" />
  <path
     id="path981"
     d="M 5 0 C 5 0 3 0 3 2 L 1 2 L 1 4 L 16 4 L 16 2 L 14 2 C 14 2 14 0 12 0 L 5 0 z M 5 1 L 12 1 L 12 2 L 5 2 L 5 1 z M 2 5 L 2 14 C 2 16 4 16 4 16 L 13 16 C 15 16 15 14 15 14 L 15 5 L 13 5 L 13 14 L 4 14 L 4 5 L 2 5 z M 6.7324219 6.5253906 L 6.0253906 7.2324219 L 7.7929688 9 L 6.0253906 10.767578 L 6.7324219 11.474609 L 8.5 9.7070312 L 10.267578 11.474609 L 10.974609 10.767578 L 9.2070312 9 L 10.974609 7.2324219 L 10.267578 6.5253906 L 8.5 8.2929688 L 6.7324219 6.5253906 z "
     style="fill:#2e3436;fill-opacity:1" />
</svg>
