<?xml version="1.0" encoding="UTF-8" standalone="no"?>
<svg
   height="16px"
   viewBox="0 0 16 16"
   width="16px"
   version="1.1"
   id="svg8"
   xmlns="http://www.w3.org/2000/svg"
   xmlns:svg="http://www.w3.org/2000/svg">
  <defs
     id="defs12" />
  <path
     id="path3197"
     style="fill:#2e3436;fill-opacity:1;stroke-width:2.2;stroke-opacity:0.850738;paint-order:markers stroke fill"
     d="M 8 5 C 4.9624339 5 2.5 7.4624339 2.5 10.5 C 2.5 13.537566 4.9624339 16 8 16 C 11.037566 16 13.5 13.537566 13.5 10.5 C 13.5 7.4624339 11.037566 5 8 5 z M 8 6.5 C 10.216 6.5 12 8.284 12 10.5 C 12 12.716 10.216 14.5 8 14.5 C 5.7839999 14.5 4 12.716 4 10.5 C 4 8.284 5.7839999 6.5 8 6.5 z " />
  <rect
     style="fill:#2e3436;fill-opacity:1;stroke-width:1.9532;paint-order:markers stroke fill"
     id="rect3420"
     width="1.6071429"
     height="3.2142859"
     x="7.1964283"
     y="0"
     ry="0" />
  <rect
     style="fill:#2e3436;fill-opacity:1;stroke-width:1.9532;paint-order:markers stroke fill"
     id="rect3584"
     width="1.6071429"
     height="3.2142859"
     x="11.374631"
     y="-5.406733"
     ry="0"
     transform="rotate(30)" />
  <rect
     style="fill:#2e3436;fill-opacity:1;stroke-width:1.9532;paint-order:markers stroke fill"
     id="rect3588"
     width="1.6071429"
     height="3.2142859"
     x="0.87463176"
     y="2.5932665"
     ry="0"
     transform="rotate(-30)" />
  <path
     style="color:#000000;fill:#2e3436;-inkscape-stroke:none"
     d="m 5.4003906,10.699219 c 0,0 -0.00905,0.626423 0.3125,1.269531 C 6.0344445,12.611858 6.8000012,13.300781 8,13.300781 c 1.1999988,0 1.9655555,-0.688923 2.287109,-1.332031 0.321554,-0.643108 0.3125,-1.269531 0.3125,-1.269531 H 9.4003906 c 0,0 -0.00905,0.37553 -0.1875,0.732422 C 9.034445,11.788532 8.7999992,12.099609 8,12.099609 c -0.7999992,0 -1.034445,-0.311077 -1.2128906,-0.667968 -0.1784457,-0.356892 -0.1875,-0.732422 -0.1875,-0.732422 z"
     id="path3769" />
</svg>
