<?xml version="1.0" encoding="UTF-8" standalone="no"?>
<svg
   height="16px"
   viewBox="0 0 16 16"
   width="16px"
   version="1.1"
   id="svg8"
   sodipodi:docname="code-symbolic (copy).svg"
   inkscape:version="1.1.2 (0a00cf5339, 2022-02-04)"
   xmlns:inkscape="http://www.inkscape.org/namespaces/inkscape"
   xmlns:sodipodi="http://sodipodi.sourceforge.net/DTD/sodipodi-0.dtd"
   xmlns="http://www.w3.org/2000/svg"
   xmlns:svg="http://www.w3.org/2000/svg">
  <defs
     id="defs12" />
  <sodipodi:namedview
     id="namedview10"
     pagecolor="#505050"
     bordercolor="#eeeeee"
     borderopacity="1"
     inkscape:pageshadow="0"
     inkscape:pageopacity="0"
     inkscape:pagecheckerboard="0"
     showgrid="true"
     inkscape:snap-bbox="true"
     inkscape:bbox-nodes="true"
     inkscape:snap-bbox-edge-midpoints="true"
     inkscape:zoom="31.775611"
     inkscape:cx="6.9392843"
     inkscape:cy="9.2523791"
     inkscape:window-width="1503"
     inkscape:window-height="933"
     inkscape:window-x="0"
     inkscape:window-y="0"
     inkscape:window-maximized="1"
     inkscape:current-layer="svg8">
    <inkscape:grid
       type="xygrid"
       id="grid829" />
  </sodipodi:namedview>
  <path
     id="path853"
     style="fill:#2e3436;stroke-width:2;stroke-opacity:0.850738;paint-order:markers stroke fill;fill-opacity:1"
     d="M 8 1 C 7.446 1 7 1.446 7 2 L 7 3 C 7 3.554 7.446 4 8 4 C 8.554 4 9 3.554 9 3 L 9 2 C 9 1.446 8.554 1 8 1 z M 3.9726562 2.0703125 C 3.8115291 2.0746647 3.6499306 2.1185156 3.5 2.2050781 C 3.0202219 2.4820781 2.8577656 3.0924876 3.1347656 3.5722656 L 3.6347656 4.4375 C 3.9117656 4.9172781 4.5202219 5.0816875 5 4.8046875 C 5.4797781 4.5276875 5.6422344 3.9172781 5.3652344 3.4375 L 4.8652344 2.5722656 C 4.6747969 2.2424182 4.327136 2.0607376 3.9726562 2.0703125 z M 11.978516 2.0703125 C 11.641052 2.0775648 11.316547 2.2574113 11.134766 2.5722656 L 10.634766 3.4375 C 10.357766 3.9172781 10.520222 4.5276875 11 4.8046875 C 11.479778 5.0816875 12.088234 4.9172781 12.365234 4.4375 L 12.865234 3.5722656 C 13.142234 3.0924876 12.979778 2.4820781 12.5 2.2050781 C 12.335076 2.1098594 12.155282 2.0665137 11.978516 2.0703125 z M 8 5 A 5 5 0 0 0 3 10 A 5 5 0 0 0 8 15 A 5 5 0 0 0 13 10 A 5 5 0 0 0 8 5 z M 8 7 A 3 3 0 0 1 11 10 A 3 3 0 0 1 8 13 A 3 3 0 0 1 5 10 A 3 3 0 0 1 8 7 z " />
</svg>
