<?xml version="1.0" encoding="UTF-8" standalone="no"?>
<svg
   height="16px"
   viewBox="0 0 16 16"
   width="16px"
   version="1.1"
   id="svg10"
   sodipodi:docname="insert-horizontal-rule-symbolic.svg"
   inkscape:version="1.1.2 (0a00cf5339, 2022-02-04)"
   xmlns:inkscape="http://www.inkscape.org/namespaces/inkscape"
   xmlns:sodipodi="http://sodipodi.sourceforge.net/DTD/sodipodi-0.dtd"
   xmlns="http://www.w3.org/2000/svg"
   xmlns:svg="http://www.w3.org/2000/svg">
  <defs
     id="defs14" />
  <sodipodi:namedview
     id="namedview12"
     pagecolor="#505050"
     bordercolor="#eeeeee"
     borderopacity="1"
     inkscape:pageshadow="0"
     inkscape:pageopacity="0"
     inkscape:pagecheckerboard="0"
     showgrid="false"
     inkscape:snap-bbox="true"
     inkscape:snap-bbox-edge-midpoints="true"
     inkscape:snap-page="true"
     inkscape:bbox-paths="true"
     inkscape:bbox-nodes="true"
     inkscape:snap-bbox-midpoints="true"
     inkscape:zoom="40.375"
     inkscape:cx="8.0866873"
     inkscape:cy="7.9628483"
     inkscape:window-width="1280"
     inkscape:window-height="1051"
     inkscape:window-x="12"
     inkscape:window-y="10"
     inkscape:window-maximized="0"
     inkscape:current-layer="svg10" />
  <path
     id="path2-3"
     style="fill:#2e3436"
     d="M 7 1.9921875 L 7 3.9921875 L 4.75 3.9921875 L 7.78125 6.9921875 L 8.21875 6.9921875 L 11.25 3.9921875 L 9 3.9921875 L 9 1.9921875 L 7 1.9921875 z M 1 7.9921875 L 1 9.9921875 L 15 9.9921875 L 15 7.9921875 L 1 7.9921875 z M 5 12 L 5 13 L 5.0078125 13 C 5.0039025 13.261719 5.1093748 13.515624 5.2929688 13.707031 L 7.2929688 15.703125 C 7.6835938 16.09375 8.3164062 16.09375 8.7070312 15.703125 L 10.707031 13.707031 C 10.894531 13.515624 10.996094 13.261719 10.996094 13 L 11 13 L 11 12 L 5 12 z " />
</svg>
