<?xml version="1.0" encoding="UTF-8"?>
<svg height="16px" viewBox="0 0 16 16" width="16px" xmlns="http://www.w3.org/2000/svg">
  <path fill="#2e3436" d="M 4 0 C 2.355469 0 1 1.355469 1 3 L 1 13 C 1 14.644531 2.355469 16 4 16 L 7 16 L 7 13 L 4 13 C 3.445312 13 3 12.554688 3 12 L 3 3 C 3 2.445312 3.445312 2 4 2 L 12 2 C 12.570312 2 13 2.429688 13 3 L 13 7 L 15 7 L 15 3 C 15 1.355469 13.644531 0 12 0 L 4 0 z M 8 3 C 5.789062 3 4 4.789062 4 7 L 4 11 L 7 11 L 7 8.7304688 C 6.4028602 8.3846887 6 7.7403867 6 7 C 6 5.894531 6.894531 5 8 5 C 9.105469 5 10 5.894531 10 7 L 12 7 C 12 4.789062 10.210938 3 8 3 z "/>
  <path fill="#33d17a" class="success" d="M 9.5 8 C 8.667969 8 8 8.667969 8 9.5 L 8 14.5 C 8 15.332031 8.667969 16 9.5 16 L 14.5 16 C 15.332031 16 16 15.332031 16 14.5 L 16 9.5 C 16 8.667969 15.332031 8 14.5 8 L 9.5 8 z M 13.912109 9.6367188 C 14.027303 9.6367188 14.142201 9.6812635 14.230469 9.7695312 L 14.867188 10.408203 C 15.043723 10.584738 15.043722 10.868387 14.867188 11.044922 L 12.318359 13.59375 L 11.681641 14.230469 C 11.505105 14.407005 11.221458 14.407005 11.044922 14.230469 L 10.40625 13.59375 L 9.1328125 12.318359 C 8.956277 12.141823 8.956277 11.858177 9.1328125 11.681641 L 9.7695312 11.044922 C 9.9460668 10.868387 10.229714 10.868387 10.40625 11.044922 L 11.363281 12 L 13.59375 9.7695312 C 13.682019 9.6812633 13.796914 9.6367188 13.912109 9.6367188 z "/>
</svg>
