<svg width="16px" height="16px" version="1.1" viewBox="0 0 16 16" xmlns="http://www.w3.org/2000/svg">
 <path d="m4 0c-1.6445 0-3 1.3555-3 3v10c0 1.6445 1.3555 3 3 3h3v-3h-3c-0.55469 0-1-0.44531-1-1v-9c0-0.55469 0.44531-1 1-1h8c0.57031 0 1 0.42969 1 1v4h2v-4c0-1.6445-1.3555-3-3-3h-8zm4 3c-2.2109 0-4 1.7891-4 4v4h3v-2.2695c-0.59714-0.34578-1-0.99008-1-1.7305 0-1.1055 0.89453-2 2-2s2 0.89453 2 2h2c0-2.2109-1.7891-4-4-4zm1.5 5c-0.83203 0-1.5 0.66797-1.5 1.5v5c0 0.83203 0.66797 1.5 1.5 1.5h5c0.83203 0 1.5-0.66797 1.5-1.5v-5c0-0.83203-0.66797-1.5-1.5-1.5h-5zm2 1h1c0.277 0 0.5 0.223 0.5 0.5v0.76953l0.66602-0.38477c0.23989-0.1385 0.54314-0.058248 0.68164 0.18164l0.5 0.86719c0.1385 0.23989 0.058249 0.54314-0.18164 0.68164l-0.66602 0.38477 0.66602 0.38477c0.23989 0.1385 0.32014 0.44175 0.18164 0.68164l-0.5 0.86719c-0.1385 0.23989-0.44175 0.32014-0.68164 0.18164l-0.66602-0.38476v0.76953c0 0.277-0.223 0.5-0.5 0.5h-1c-0.277 0-0.5-0.223-0.5-0.5v-0.76953l-0.66602 0.38476c-0.23989 0.1385-0.54314 0.058249-0.68164-0.18164l-0.5-0.86719c-0.1385-0.23989-0.058248-0.54314 0.18164-0.68164l0.66602-0.38477-0.66602-0.38477c-0.23989-0.1385-0.32014-0.44175-0.18164-0.68164l0.5-0.86719c0.1385-0.23989 0.44175-0.32014 0.68164-0.18164l0.66602 0.38477v-0.76953c0-0.277 0.223-0.5 0.5-0.5z" fill="#2e3436"/>
</svg>
