<?xml version="1.0" encoding="UTF-8" standalone="no"?>
<svg
   height="128px"
   viewBox="0 0 128 128"
   width="128px"
   version="1.1"
   id="svg39"
   sodipodi:docname="io.posidon.Paper.svg"
   inkscape:version="1.3.2 (091e20ef0f, 2023-11-25)"
   xmlns:inkscape="http://www.inkscape.org/namespaces/inkscape"
   xmlns:sodipodi="http://sodipodi.sourceforge.net/DTD/sodipodi-0.dtd"
   xmlns:xlink="http://www.w3.org/1999/xlink"
   xmlns="http://www.w3.org/2000/svg"
   xmlns:svg="http://www.w3.org/2000/svg">
  <defs
     id="defs39" />
  <sodipodi:namedview
     id="namedview39"
     pagecolor="#ffffff"
     bordercolor="#000000"
     borderopacity="0.25"
     inkscape:showpageshadow="2"
     inkscape:pageopacity="0.0"
     inkscape:pagecheckerboard="0"
     inkscape:deskcolor="#d1d1d1"
     inkscape:zoom="8.9765625"
     inkscape:cx="63.944299"
     inkscape:cy="64"
     inkscape:window-width="2560"
     inkscape:window-height="1355"
     inkscape:window-x="0"
     inkscape:window-y="0"
     inkscape:window-maximized="1"
     inkscape:current-layer="svg39" />
  <linearGradient
     id="a"
     gradientUnits="userSpaceOnUse"
     x1="100"
     x2="108"
     y1="112.00034"
     y2="112.00034"
     gradientTransform="matrix(-1,0,0,1,135.28634,3.883812)">
    <stop
       offset="0"
       stop-color="#6ce4ab"
       id="stop1" />
    <stop
       offset="0.5"
       stop-color="#a9fbd0"
       id="stop2" />
    <stop
       offset="1"
       stop-color="#6ce4ab"
       id="stop3" />
  </linearGradient>
  <linearGradient
     id="b"
     gradientUnits="userSpaceOnUse"
     x1="20"
     x2="24"
     y1="108"
     y2="108"
     gradientTransform="matrix(-1,0,0,1,135.28634,3.883812)">
    <stop
       offset="0"
       stop-color="#09635f"
       id="stop4" />
    <stop
       offset="0.5"
       stop-color="#1f726e"
       id="stop5" />
    <stop
       offset="1"
       stop-color="#09635f"
       id="stop6" />
  </linearGradient>
  <linearGradient
     id="c"
     gradientUnits="userSpaceOnUse">
    <stop
       offset="0"
       stop-color="#9a9996"
       id="stop7" />
    <stop
       offset="1"
       stop-color="#f6f5f4"
       id="stop8" />
  </linearGradient>
  <linearGradient
     id="d"
     gradientTransform="matrix(-0.965926,-0.258819,-0.258819,0.965926,-101.51169,-103.49939)"
     x1="-231.10257"
     x2="-227.10257"
     xlink:href="#c"
     y1="131.796356"
     y2="131.796356" />
  <linearGradient
     id="e"
     gradientTransform="matrix(-0.965926,-0.258819,-0.258819,0.965926,-101.51169,-103.49939)"
     gradientUnits="userSpaceOnUse"
     x1="-221.10257"
     x2="-237.102264"
     y1="92.796349"
     y2="92.796349">
    <stop
       offset="0"
       stop-color="#02ab90"
       id="stop9" />
    <stop
       offset="1"
       stop-color="#09635f"
       id="stop10" />
  </linearGradient>
  <linearGradient
     id="f"
     gradientUnits="userSpaceOnUse">
    <stop
       offset="0"
       stop-color="#f6f5f4"
       id="stop11" />
    <stop
       offset="1"
       stop-color="#9a9996"
       id="stop12" />
  </linearGradient>
  <linearGradient
     id="g"
     gradientTransform="matrix(-0.965926,-0.258819,-0.12943,0.483039,-113.51853,-58.689239)"
     x1="-221.10257"
     x2="-237.10257"
     xlink:href="#f"
     y1="92.796349"
     y2="92.796349" />
  <linearGradient
     id="h"
     gradientTransform="matrix(-0.965926,-0.258819,-0.258819,0.965926,-101.51204,-103.49941)"
     x1="-231.10257"
     x2="-227.10257"
     xlink:href="#c"
     y1="131.796356"
     y2="131.796356" />
  <linearGradient
     id="i"
     gradientUnits="userSpaceOnUse"
     x1="88.039267"
     x2="103.494009"
     y1="43.360555"
     y2="47.501638">
    <stop
       offset="0"
       stop-color="#02ab90"
       id="stop13" />
    <stop
       offset="0.25"
       stop-color="#02cbac"
       id="stop14" />
    <stop
       offset="0.5"
       stop-color="#118d7e"
       id="stop15" />
    <stop
       offset="0.75"
       stop-color="#247b78"
       id="stop16" />
    <stop
       offset="1"
       stop-color="#1f726e"
       id="stop17" />
  </linearGradient>
  <linearGradient
     id="j"
     gradientTransform="matrix(-0.965926,-0.258819,-0.12943,0.483039,-113.51888,-58.68925)"
     x1="-221.10257"
     x2="-237.10257"
     xlink:href="#f"
     y1="92.796349"
     y2="92.796349" />
  <g
     id="g42">
    <g
       id="g40"
       transform="rotate(-15,29.263092,333.89274)">
      <path
         d="M 114.60547,21.488281 108.80859,19.9375 c -0.20312,-0.05469 -0.40234,-0.07422 -0.59765,-0.06641 -0.85156,0.03125 -1.61719,0.613281 -1.85156,1.480468 -0.28516,1.070313 0.34375,2.164063 1.41406,2.449219 l 7.72656,2.070313 0.51953,-1.929688 c 0.28516,-1.070312 -0.34375,-2.164062 -1.41406,-2.453125 z m 0,0"
         fill="#c0bfbc"
         id="path28" />
      <path
         d="M 86.449219,80.203125 C 85.382812,79.917969 84.285156,80.550781 84,81.617188 l -0.519531,1.933593 c -0.285157,1.066407 0.347656,2.164063 1.417969,2.449219 1.066406,0.285156 2.160156,-0.347656 2.449218,-1.414062 l 0.515625,-1.933594 c 0.285157,-1.066406 -0.347656,-2.160156 -1.414062,-2.449219 z m 0,0"
         fill="url(#d)"
         id="path29"
         style="fill:url(#d)" />
      <path
         d="m 99.503906,11.417969 c -1.703125,0.06641 -3.234375,1.226562 -3.699218,2.964843 l -4.144532,15.453126 -0.753906,2.832031 -0.28125,1.03125 c 0,0.0039 0.0039,0.0039 0,0.0039 L 86.484375,49.15625 C 84.414062,56.882812 79.238281,76.203125 84,81.617188 l 3.863281,1.039062 c 6.832031,-2.3125 12.007813,-21.632812 14.078129,-29.359375 l 4.14062,-15.453125 0.27735,-1.039062 0.75781,-2.824219 4.14453,-15.457031 c 0.57031,-2.140626 -0.69141,-4.324219 -2.83203,-4.898438 l -7.72656,-2.070312 c -0.40235,-0.109376 -0.804692,-0.148438 -1.199224,-0.136719 z m 0,0"
         fill="url(#e)"
         id="path30"
         style="fill:url(#e)" />
      <path
         d="m 103.49609,47.5 -15.457028,-4.140625 -0.515624,1.933594 15.453122,4.140625 z m 0,0"
         fill="url(#g)"
         id="path31"
         style="fill:url(#g)" />
      <path
         d="m 111.63672,24.835938 -0.51563,1.933593 -0.51953,1.929688 -4.14062,15.457031 c -0.28516,1.070312 0.34375,2.164062 1.41406,2.449219 1.07031,0.285156 2.16406,-0.34375 2.44922,-1.414063 l 4.14062,-15.453125 0.51954,-1.933593 0.51562,-1.933594 -1.92969,-0.515625 z m 0,0"
         fill="#c0bfbc"
         id="path32" />
      <path
         d="M 86.449219,80.203125 C 85.382812,79.917969 84.285156,80.550781 84,81.617188 l -0.519531,1.933593 c -0.285157,1.066407 0.347656,2.164063 1.414062,2.449219 1.070313,0.285156 2.164063,-0.347656 2.449219,-1.414062 l 0.519531,-1.933594 c 0.285157,-1.066406 -0.347656,-2.160156 -1.414062,-2.449219 z m 0,0"
         fill="url(#h)"
         id="path36"
         style="fill:url(#h)" />
      <g
         id="g39">
        <path
           d="M 114.60547,21.488281 108.80859,19.9375 c -0.20312,-0.05469 -0.40234,-0.07422 -0.59765,-0.06641 -0.85156,0.03125 -1.61719,0.613281 -1.85156,1.480468 -0.28516,1.070313 0.34375,2.164063 1.41406,2.449219 l 7.72656,2.070313 0.51953,-1.929688 c 0.28516,-1.070312 -0.34375,-2.164062 -1.41406,-2.453125 z m 0,0"
           fill="#c0bfbc"
           id="path35" />
        <path
           d="m 111.63672,24.835938 -0.51563,1.933593 -0.51953,1.929688 -4.14062,15.457031 c -0.28516,1.070312 0.34375,2.164062 1.41406,2.449219 1.07031,0.285156 2.16406,-0.34375 2.44922,-1.414063 l 4.14062,-15.453125 0.51954,-1.933593 0.51562,-1.933594 -1.92969,-0.515625 z m 0,0"
           fill="#c0bfbc"
           id="path37" />
        <path
           d="m 99.503906,11.417969 c -1.703125,0.06641 -3.234375,1.226562 -3.699218,2.964843 l -4.144532,15.453126 -0.757812,2.832031 -0.277344,1.03125 v 0.0039 L 86.484375,49.15625 C 84.414062,56.882812 79.238281,76.203125 84,81.617188 l 3.863281,1.035156 C 94.695312,80.34375 99.871094,61.023438 101.94141,53.296875 l 4.14062,-15.457031 0.27735,-1.035156 0.75781,-2.828126 4.14062,-15.453124 c 0.57422,-2.140626 -0.6875,-4.324219 -2.82812,-4.898438 l -7.72656,-2.070312 c -0.40235,-0.109376 -0.804692,-0.148438 -1.199224,-0.136719 z m 0,0"
           fill="url(#i)"
           id="path38"
           style="fill:url(#i)" />
      </g>
      <path
         d="m 103.49219,47.5 -15.453128,-4.140625 -0.519531,1.933594 15.457029,4.140625 z m 0,0"
         fill="url(#j)"
         id="path39"
         style="fill:url(#j)" />
    </g>
    <path
       d="M 115.28634,15.883812 V 107.88381 H 36.286336 c -4.98438,0 -9,-4.01562 -9,-8.999998 v -78 c 0,-4.984375 4.01562,-9 9,-9 H 111.1965"
       fill="#f3ffe0"
       id="path17" />
    <path
       d="m 115.28634,43.883812 h -12 v 16 h 12 z m 0,0"
       fill="#51dcab"
       id="path18" />
    <path
       d="m 27.286336,98.883812 c 0,4.984378 4.01562,8.999998 9,8.999998 h 67.000004 v 16 H 36.286336 c -4.98438,0 -9,-4.01562 -9,-9 z m 0,0"
       fill="url(#a)"
       id="path19"
       style="fill:url(#a)" />
    <path
       d="m 111.28634,11.883812 c 2.19531,0.05078 3.94922,1.804688 4,4 v 10 h -12 v -14 z m 0,0"
       fill="#8aefbc"
       id="path20" />
    <g
       id="g41"
       transform="matrix(-1,0,0,1,127.28634,3.883812)">
      <path
         d="m 88,76 h -4 v 4 h 4 z m 0,0"
         fill="#00dab8"
         id="path21" />
      <path
         d="M 88,32 V 48 H 68 V 44 H 32 V 32 Z m 0,20 v 8 H 60 V 56 H 32 v -4 z m -8,16 v 4 H 52 v -4 z m 0,8 v 4 H 64 v -4 z m 0,0"
         fill="#ade9b5"
         id="path22" />
      <path
         d="m 88,68 h -4 v 4 h 4 z m 0,0"
         fill="#00dab8"
         id="path23" />
      <path
         d="M 88,20 H 64 v 4 h 24 z m 0,0"
         fill="#307d66"
         id="path24" />
    </g>
    <path
       d="m 115.28634,99.883812 v 19.999998 c 0,2.21484 -1.78516,4 -4,4 h -8 V 99.883812 Z m 0,0"
       fill="url(#b)"
       id="path25"
       style="fill:url(#b)" />
    <path
       d="m 115.28634,75.883812 h -12 v 16 h 12 z m 0,0"
       fill="#02ab90"
       id="path26" />
    <path
       d="m 115.28634,41.883812 h -12 v 2 h 12 z m 0,0"
       fill="#8aefbc"
       id="path27" />
    <path
       d="m 115.28634,59.883812 h -12 v 16 h 12 z m 0,0"
       fill="#31c6a1"
       id="path33" />
    <path
       d="m 115.28634,91.883812 v 11.999998 c 0,2.21484 -1.78516,4 -4,4 h -8 V 91.883812 Z m 0,0"
       fill="#068677"
       id="path34" />
  </g>
</svg>
