<?xml version="1.0" encoding="UTF-8" standalone="no"?>
<!-- Created with Inkscape (http://www.inkscape.org/) -->

<svg
   id="svg3205"
   sodipodi:docname="com.toolstack.Folio.svg"
   viewBox="0 0 199.58614 264.86212"
   sodipodi:version="0.32"
   version="1.0"
   inkscape:output_extension="org.inkscape.output.svg.inkscape"
   inkscape:version="1.3.2 (091e20ef0f, 2023-11-25)"
   width="199.58614"
   height="264.86212"
   xmlns:inkscape="http://www.inkscape.org/namespaces/inkscape"
   xmlns:sodipodi="http://sodipodi.sourceforge.net/DTD/sodipodi-0.dtd"
   xmlns="http://www.w3.org/2000/svg"
   xmlns:svg="http://www.w3.org/2000/svg"
   xmlns:rdf="http://www.w3.org/1999/02/22-rdf-syntax-ns#">
  <defs
     id="defs1">
    <rect
       x="47.403618"
       y="39.886209"
       width="127.21"
       height="151.84167"
       id="rect1" />
  </defs>
  <sodipodi:namedview
     id="base"
     bordercolor="#666666"
     inkscape:pageshadow="2"
     inkscape:window-y="23"
     pagecolor="#ffffff"
     inkscape:window-height="1216"
     inkscape:zoom="3.68"
     inkscape:window-x="26"
     showgrid="false"
     borderopacity="1.0"
     inkscape:current-layer="layer1"
     inkscape:cx="94.701087"
     inkscape:cy="125.27174"
     inkscape:window-width="1499"
     showborder="false"
     inkscape:pageopacity="0.0"
     inkscape:document-units="px"
     inkscape:showpageshadow="2"
     inkscape:pagecheckerboard="0"
     inkscape:deskcolor="#d1d1d1"
     inkscape:window-maximized="0" />
  <g
     id="layer1"
     inkscape:label="Calque 1"
     inkscape:groupmode="layer"
     transform="translate(-129.61473,-628.77037)">
    <path
       id="path4152"
       sodipodi:nodetypes="cccccccc"
       style="fill:#6ce4ab;stroke:#000000;stroke-width:2.015;stroke-linecap:round;stroke-linejoin:round;fill-opacity:1"
       d="m 175.30451,857.34892 1.99226,9.22513 c 1.48158,4.96695 4.7733,6.78514 9.90797,6.28747 l 124.25865,-23.46016 c 9.14912,-1.63629 15.2183,-6.9375 15.52377,-16.09613 l -2.90413,-21.3981 -142.1879,25.93226 z" />
    <path
       id="path4154"
       sodipodi:nodetypes="ccccccccc"
       style="fill:#6ce4ab;stroke:#000000;stroke-width:2.1149;stroke-linecap:round;stroke-linejoin:round;stroke-dashoffset:3;fill-opacity:1"
       d="m 130.67218,665.36288 c 0.76242,-5.7558 7.08281,-12.19192 14.91448,-13.20359 L 263.9775,630.42655 c 9.16453,-1.53748 16.36172,-0.97246 19.58735,12.77053 L 328.068,814.44503 c 0.80128,6.58722 -5.04346,14.0011 -10.49681,15.07682 l -122.87587,23.799 c -9.43868,1.05194 -16.7473,4.93531 -17.7624,12.06307 z" />
    <path
       id="path4156"
       sodipodi:nodetypes="ccccccccc"
       style="fill:#6ce4ab;stroke:#000000;stroke-width:0.74022;stroke-linecap:round;stroke-linejoin:round;stroke-dasharray:0.740221, 1.48044;fill-opacity:1"
       d="m 132.28965,668.47671 c 2.75602,-7.33466 9.21214,-12.7246 16.8083,-13.44245 l 112.92181,-20.03111 c 7.61933,-1.46435 13.91243,-3.20349 16.973,9.80618 l 44.24854,167.12592 c 2.62721,7.09374 -1.70705,13.49864 -9.95051,15.4126 L 194.83315,848.3542 c -11.16116,1.41589 -16.17377,4.00576 -19.17679,9.05721 z" />
    <path
       id="path4158"
       sodipodi:nodetypes="cc"
       style="fill:#6ce4ab;stroke:#000000;stroke-width:1.0575;stroke-linecap:round;stroke-linejoin:round;fill-opacity:1"
       d="m 162.73038,649.97172 49.59703,199.88094" />
    <path
       id="path4162"
       sodipodi:nodetypes="cccc"
       style="display:inline;fill:#6ce4ab;stroke:#000000;stroke-width:0.682521;stroke-linecap:round;stroke-linejoin:round;fill-opacity:1"
       d="m 179.42653,861.91041 c 3.77498,5.3142 8.20593,3.85641 11.5746,3.59242 L 305.60672,845.2773 c 10.18994,-1.45356 15.06991,-9.29774 14.82852,-15.00494" />
    <path
       id="path4164"
       sodipodi:nodetypes="ccccc"
       style="fill:#e6e6e6;stroke:#000000;stroke-width:0.74022;stroke-linecap:round;stroke-linejoin:round;fill-opacity:1"
       d="m 188.07304,858.58114 0.9236,5.63296 c 3.2791,-0.71415 5.79731,0.19443 8.33848,0.18651 6.24947,-3.21203 4.71552,-9.12421 -1.62957,-9.41736 -2.28283,1.48171 -4.42258,2.60913 -7.63251,3.59789 z" />
    <path
       id="path4166"
       sodipodi:nodetypes="ccccccccc"
       style="fill:#e6e6e6;stroke:#000000;stroke-width:0.52873;stroke-linecap:round;stroke-linejoin:round;fill-opacity:1"
       d="m 191.5976,859.85492 1.61656,1.00678 5.71931,-0.0849 0.75792,-2.57567 1.66304,1.47319 -0.88467,2.81406 -9.45272,0.18373 -1.06259,-2.04866 z" />
    <path
       id="path4168"
       sodipodi:nodetypes="ccccccccccc"
       style="fill:#e6e6e6;stroke:#000000;stroke-width:0.52873;stroke-linecap:round;stroke-linejoin:round;fill-opacity:1"
       d="m 194.83651,860.38788 c -0.51745,-0.77346 1.21748,-1.99154 2.20599,-2.70044 3.46362,-0.40085 5.28718,0.55743 6.70472,3.25917 0.56177,4.18341 -1.54331,4.8196 -3.87576,6.13903 l -5.53777,-0.55476 0.5644,-1.6366 3.97335,0.32321 c 1.56636,-0.56022 3.32123,-0.43126 3.05682,-3.44858 -0.50599,-1.94524 -1.72166,-2.70488 -4.17789,-2.51589 l -1.22584,1.43214 z" />
    <g
       id="g4170"
       transform="matrix(0.90906047,0.56946419,-0.55711075,0.88108553,324.37209,25.793928)"
       style="fill:#e6e6e6">
      <path
         id="path4172"
         style="fill:#e6e6e6;stroke:#000000;stroke-linecap:round;stroke-linejoin:round"
         d="M 315.42,743.89 Z" />
      <path
         id="path4174"
         sodipodi:nodetypes="ccccccc"
         style="fill:#e6e6e6;stroke:#000000;stroke-width:0.85074;stroke-linecap:round;stroke-linejoin:round"
         d="m 320.46,744.22 2.51,2.18 11.31,20.92 c -1.22,2.79 -4.53,3.81 -8,4.67 l -10.03,-21.95 -0.66,-2.92 z" />
      <path
         id="path4176"
         sodipodi:nodetypes="ccccc"
         style="fill:#e6e6e6;stroke:#000000;stroke-width:0.5;stroke-linecap:round;stroke-linejoin:round;stroke-dasharray:0.5, 1"
         d="m 317.69,748.66 9.35,20.96 c 2.11,-0.32 4.44,-0.65 5.15,-2.85 l -11.21,-19.98 z" />
    </g>
    <g
       id="g4178"
       transform="matrix(0.6550407,-0.81213995,0.84125742,0.66418034,-627.96994,649.37397)"
       style="fill:#e6e6e6">
      <path
         id="path4180"
         sodipodi:nodetypes="ccccc"
         style="fill:#e6e6e6;stroke:#000000;stroke-width:0.7;stroke-linecap:round;stroke-linejoin:round"
         d="m 349.3,733.06 -4.05,4.77 c -2.39,-2.08 -4.33,-2.8 -6.41,-3.95 -3.74,-5.54 0.11,-9.85 5.46,-7.25 1.23,2.29 2.78,4.15 5,6.43 z" />
      <path
         id="path4182"
         style="fill:#e6e6e6;stroke:#000000;stroke-linecap:round;stroke-linejoin:round"
         d="M 341.64,731.48 Z" />
      <path
         id="path4184"
         sodipodi:nodetypes="ccccccccc"
         style="fill:#e6e6e6;stroke:#000000;stroke-width:0.5;stroke-linecap:round;stroke-linejoin:round"
         d="m 345.55,732.61 -1.77,0.13 -4.67,-2.65 0.51,-2.53 -2.02,0.51 -0.51,2.77 7.7,4.42 1.77,-1.26 z" />
      <path
         id="path4186"
         sodipodi:nodetypes="ccccccccccc"
         style="fill:#e6e6e6;stroke:#000000;stroke-width:0.5;stroke-linecap:round;stroke-linejoin:round"
         d="m 342.65,731.6 c 0.77,-0.42 -0.13,-2.23 -0.63,-3.28 -2.68,-1.9 -4.6,-1.9 -6.95,-0.25 -2.29,3.29 -0.84,4.77 0.51,6.94 l 4.79,2.02 0.26,-1.64 -3.41,-1.51 c -1.05,-1.19 -2.55,-1.87 -1.01,-4.3 1.27,-1.42 2.6,-1.51 4.54,-0.25 l 0.38,1.77 z" />
      <path
         id="path4188"
         sodipodi:nodetypes="ccccccc"
         style="fill:#e6e6e6;stroke:#000000;stroke-width:0.85074;stroke-linecap:round;stroke-linejoin:round"
         d="m 336.6,731.81 -1.84,1.85 -11.99,21.25 c 1.23,2.79 4.07,4.26 8,4.67 l 10.43,-22.24 0.27,-2.63 z" />
    </g>
    <path
       id="path4190"
       sodipodi:nodetypes="ccccc"
       style="fill:#e6e6e6;stroke:#000000;stroke-width:0.52873;stroke-linecap:round;stroke-linejoin:round;stroke-dasharray:0.528729, 1.05746"
       d="m 209.79059,864.53367 9.90961,22.47278 c 2.25919,-0.18051 4.76013,-0.36838 5.62611,-2.61477 l -11.00219,-21.71727 z" />
    <path
       id="path4192"
       sodipodi:nodetypes="cccc"
       style="fill:#6ce4ab;stroke:#000000;stroke-width:0.74022;stroke-linecap:round;stroke-linejoin:round;stroke-dasharray:0.740221, 1.48044;fill-opacity:1"
       d="m 159.35368,648.86717 49.93617,201.52227 -0.16181,-0.50509" />
    <text
       xml:space="preserve"
       transform="matrix(1.3747762,-0.24021766,0.34277019,1.4030499,85.297253,608.63104)"
       id="text1"
       style="font-size:133.333px;font-family:Sans;-inkscape-font-specification:Sans;white-space:pre;shape-inside:url(#rect1);fill:#e6e6e6;stroke:#000000"><tspan
         x="47.404297"
         y="157.85517"
         id="tspan2">F</tspan></text>
  </g>
  <metadata
     id="metadata1">
    <rdf:RDF />
  </metadata>
</svg>
