<?xml version="1.0" encoding="UTF-8"?>
<svg height="128px" viewBox="0 0 128 128" width="128px" xmlns="http://www.w3.org/2000/svg" xmlns:xlink="http://www.w3.org/1999/xlink">
    <radialGradient id="a" cx="67.317696" cy="115.236893" gradientTransform="matrix(0.00000014 -0.83695 0.836951 0.00000016 23.552404 164.341553)" gradientUnits="userSpaceOnUse" r="36">
        <stop offset="0" stop-color="#6ff3b8"/>
        <stop offset="1" stop-color="#f3ffe0"/>
    </radialGradient>
    <linearGradient id="b" gradientUnits="userSpaceOnUse" x1="16" x2="8" y1="110" y2="110">
        <stop offset="0" stop-color="#09635f"/>
        <stop offset="0.5" stop-color="#3a8d89"/>
        <stop offset="1" stop-color="#09635f"/>
    </linearGradient>
    <linearGradient id="c" gradientUnits="userSpaceOnUse" x1="111.999997" x2="119.999997" y1="108" y2="108">
        <stop offset="0" stop-color="#6ce4ab"/>
        <stop offset="0.5" stop-color="#a9fbd0"/>
        <stop offset="1" stop-color="#6ce4ab"/>
    </linearGradient>
    <linearGradient id="d" gradientUnits="userSpaceOnUse" x1="109.999996" x2="98.494137" y1="98" y2="86">
        <stop offset="0" stop-color="#bbffd4"/>
        <stop offset="0.311264" stop-color="#f3ffe0"/>
        <stop offset="1" stop-color="#ffffff"/>
    </linearGradient>
    <linearGradient id="e" gradientTransform="matrix(-5.666667 0 0 -5.666667 717.19989 1614.666748)" gradientUnits="userSpaceOnUse" x1="107.858803" x2="106.447037" y1="268.352936" y2="266.941193">
        <stop offset="0" stop-color="#7ff3bf"/>
        <stop offset="1" stop-color="#f3ffe0"/>
    </linearGradient>
    <path d="m 17 28 c -4.984375 0 -9 4.015625 -9 9 v 62 c 0 4.984375 4.015625 9 9 9 h 27 v -80 z m 0 0" fill="#02ab90"/>
    <path d="m 44 28 v 80 h 67 c 4.984375 0 9 -4.015625 9 -9 v -62 c 0 -4.984375 -4.015625 -9 -9 -9 z m 0 0" fill="url(#a)"/>
    <path d="m 8 99 v 8 c 0 4.984375 4.015625 9 9 9 h 27 v -8 h -27 c -4.984375 0 -9 -4.015625 -9 -9 z m 0 0" fill="url(#b)"/>
    <path d="m 120 99 c 0 4.984375 -4.015625 9 -9 9 h -67 v 8 h 67 c 4.984375 0 9 -4.015625 9 -9 z m 0 0" fill="url(#c)"/>
    <path d="m 96 108 l 24 -24 l -18.160156 2.875 c -5.5 0.871094 -9.480469 4.613281 -8.601563 8.597656 z m 0 0" fill="#84f1bd"/>
    <path d="m 96 108 l 24 -24 h -15.398438 c -4.765624 0 -8.601562 3.835938 -8.601562 8.601562 z m 0 0" fill="url(#d)"/>
    <path d="m 120 84 l -24 24 h 15 c 4.984375 0 9 -4.015625 9 -9 z m 0 0" fill="url(#e)"/>
    <path d="m 56 92 h 4 v 4 h -4 z m 0 0" fill="#00dab8"/>
    <path d="m 56 48 v 16 h 20 v -4 h 28 v -12 z m 0 0" fill="#ade9b5"/>
    <path d="m 16 36 h 22 v 4 h -22 z m 0 0" fill="#f3ffe0"/>
    <g fill="#79d3ad">
        <path d="m 16 44 h 22 v 8 h -22 z m 0 0"/>
        <path d="m 16 56 h 22 v 8 h -22 z m 0 0"/>
        <path d="m 16 68 h 22 v 8 h -22 z m 0 0"/>
        <path d="m 16 80 h 22 v 8 h -22 z m 0 0"/>
        <path d="m 16 92 h 22 v 8 h -22 z m 0 0"/>
    </g>
    <path d="m 56 68 v 8 h 28 v -4 h 20 v -4 z m 0 0" fill="#ade9b5"/>
    <path d="m 64 84 h 28 v 4 h -28 z m 0 0" fill="#ade9b5"/>
    <path d="m 64 92 h 16 v 4 h -16 z m 0 0" fill="#ade9b5"/>
    <path d="m 56 84 h 4 v 4 h -4 z m 0 0" fill="#00dab8"/>
    <path d="m 56 40 h 24 v 4 h -24 z m 0 0" fill="#307d66"/>
</svg>
